<svg xmlns="http://www.w3.org/2000/svg" version="1.1" width="270px" height="270px"
  style="shape-rendering:geometricPrecision; text-rendering:geometricPrecision; image-rendering:optimizeQuality; fill-rule:evenodd; clip-rule:evenodd"
  xmlns:xlink="http://www.w3.org/1999/xlink">
  <g>
    <path style="opacity:0.993" fill="#1a1362"
      d="M 117.5,-0.5 C 130.167,-0.5 142.833,-0.5 155.5,-0.5C 213.137,10.4718 251.137,43.8052 269.5,99.5C 269.5,101.167 269.5,102.833 269.5,104.5C 246.301,70.5743 213.968,55.4076 172.5,59C 123.716,67.4496 94.2158,95.9496 84,144.5C 78.4532,189.226 93.6199,225.059 129.5,252C 140.092,258.299 151.092,263.466 162.5,267.5C 160.369,268.169 158.369,268.835 156.5,269.5C 143.167,269.5 129.833,269.5 116.5,269.5C 68.1964,260.76 33.0298,234.426 11,190.5C 5.42693,177.194 1.59359,163.527 -0.5,149.5C -0.5,139.5 -0.5,129.5 -0.5,119.5C 8.41996,65.7307 38.0866,28.2307 88.5,7C 98.0953,3.68558 107.762,1.18558 117.5,-0.5 Z" />
  </g>
  <g>
    <path style="opacity:0.997" fill="#29aae0"
      d="M 243.5,177.5 C 223.128,180.579 214.795,192.246 218.5,212.5C 200.933,223.26 182.267,225.426 162.5,219C 130.763,204.359 118.596,179.859 126,145.5C 137.254,116.587 158.421,102.42 189.5,103C 218.375,107.211 236.541,123.378 244,151.5C 244.744,160.202 244.578,168.868 243.5,177.5 Z" />
  </g>
  <g>
    <path style="opacity:0.997" fill="#ef5924"
      d="M 243.5,177.5 C 259.355,179.021 267.688,187.687 268.5,203.5C 268.175,215.332 262.508,223.499 251.5,228C 236.078,231.928 225.078,226.761 218.5,212.5C 214.795,192.246 223.128,180.579 243.5,177.5 Z" />
  </g>
</svg>